# File created by Blade
# Date/Time:  Tue Jan 27 19:18:50 2015
#---------------------------------------------------------
:version 1.10
:name HOM
:units
  mass 1.0
  length 1.000000
  angle deg
:documentation
     Acclaim Skeleton File
:root
   axis xyz
   order TX TY TZ RX RY RZ
   position 0.000000 0.000000 0.000000
   orientation 0 0 0
:bonedata
   begin
      id 1
      name Spine_dum
      direction 0.000000 1.000000 0.000000
      length 6.116652
      axis 0.0 0.0 0.0 xyz
   end
   begin
      id 2
      name LeftUpLeg_dum
      direction 1.000000 0.000000 0.000000
      length 4.711765
      axis 0.0 0.0 0.0 xyz
   end
   begin
      id 3
      name RightUpLeg_dum
      direction -1.000000 0.000000 0.000000
      length 4.711765
      axis 0.0 0.0 0.0 xyz
   end
   begin
      id 4
      name Spine
      direction 0.000000 1.000000 0.000000
      length 0.000000
      axis 0.0 0.0 0.0 xyz
      dof rx ry rz
   end
   begin
      id 5
      name Spine_dum1
      direction 0.000000 1.000000 0.000000
      length 15.225563
      axis 0.0 0.0 0.0 xyz
   end
   begin
      id 6
      name Spine_dum2
      direction 0.000000 1.000000 0.000000
      length 8.977654
      axis 0.0 0.0 0.0 xyz
   end
   begin
      id 7
      name Spine_dum3
      direction 0.000000 1.000000 0.000000
      length 8.977654
      axis 0.0 0.0 0.0 xyz
   end
   begin
      id 8
      name Head
      direction 0.000000 1.000000 0.000000
      length 4.527550
      axis 0.0 0.0 0.0 xyz
      dof rx ry rz
   end
   begin
      id 9
      name LeftShoulder
      direction 1.000000 0.000000 0.000000
      length 7.110130
      axis 0.0 0.0 -90.0 xyz
      dof rx ry rz
   end
   begin
      id 10
      name LeftArm
      direction 1.000000 0.000000 0.000000
      length 10.398341
      axis 0.0 0.0 -90.0 xyz
      dof rx ry rz
   end
   begin
      id 11
      name LeftForeArm
      direction 1.000000 0.000000 0.000000
      length 8.888997
      axis 0.0 0.0 -90.0 xyz
      dof ry rz rx
   end
   begin
      id 12
      name LeftHand
      direction 0.000000 0.000000 0.000000
      length 0.000000
      axis 0.0 0.0 -90.0 xyz
      dof rx ry rz
   end
   begin
      id 13
      name LeftHand_dum1
      direction 0.000000 0.000000 0.000000
      length 0.000000
      axis 0.0 0.0 -90.0 xyz
   end
   begin
      id 14
      name LeftHand_dum2
      direction 1.000000 0.000000 0.000000
      length 3.937000
      axis 0.0 0.0 -90.0 xyz
   end
   begin
      id 15
      name LeftHandThumb1
      direction 0.000000 0.000000 1.000000
      length 3.937000
      axis 0.0 0.0 -90.0 xyz
      dof rx rz ry
   end
   begin
      id 16
      name RightShoulder
      direction -1.000000 0.000000 0.000000
      length 7.110130
      axis 0.0 0.0 90.0 xyz
      dof rx ry rz
   end
   begin
      id 17
      name RightArm
      direction -1.000000 0.000000 0.000000
      length 10.398341
      axis 0.0 0.0 90.0 xyz
      dof rx ry rz
   end
   begin
      id 18
      name RightForeArm
      direction -1.000000 0.000000 0.000000
      length 8.888997
      axis 0.0 0.0 90.0 xyz
      dof ry rz rx
   end
   begin
      id 19
      name RightHand
      direction 0.000000 0.000000 0.000000
      length 0.000000
      axis 0.0 0.0 90.0 xyz
      dof rx ry rz
   end
   begin
      id 20
      name RightHand_dum1
      direction 0.000000 0.000000 0.000000
      length 0.000000
      axis 0.0 0.0 90.0 xyz
   end
   begin
      id 21
      name RightHand_dum2
      direction -1.000000 0.000000 0.000000
      length 3.937000
      axis 0.0 0.0 90.0 xyz
   end
   begin
      id 22
      name RightHandThumb1
      direction 0.000000 0.000000 1.000000
      length 3.937000
      axis 0.0 0.0 90.0 xyz
      dof rx rz ry
   end
   begin
      id 23
      name LeftUpLeg
      direction 0.000000 -1.000000 0.000000
      length 15.510451
      axis 0.0 0.0 0.0 xyz
      dof rx ry rz
   end
   begin
      id 24
      name LeftLeg
      direction 0.000000 -1.000000 0.000000
      length 14.858061
      axis 0.0 0.0 0.0 xyz
      dof rx ry rz
   end
   begin
      id 25
      name LeftFoot
      direction 0.000000 -0.258819 0.965926
      length 5.128852
      axis 15.0 0.0 0.0 xyz
      dof rx ry rz
   end
   begin
      id 26
      name LeftToeBase
      direction 0.000000 0.000000 1.000000
      length 2.952750
      axis 0.0 0.0 0.0 xyz
      dof rx ry rz
   end
   begin
      id 27
      name RightUpLeg
      direction 0.000000 -1.000000 0.000000
      length 15.510451
      axis 0.0 0.0 0.0 xyz
      dof rx ry rz
   end
   begin
      id 28
      name RightLeg
      direction 0.000000 -1.000000 0.000000
      length 14.858061
      axis 0.0 0.0 0.0 xyz
      dof rx ry rz
   end
   begin
      id 29
      name RightFoot
      direction 0.000000 -0.258819 0.965926
      length 5.128852
      axis 15.0 0.0 0.0 xyz
      dof rx ry rz
   end
   begin
      id 30
      name RightToeBase
      direction 0.000000 0.000000 1.000000
      length 2.952750
      axis 0.0 0.0 0.0 xyz
      dof rx ry rz
   end
:hierarchy
   begin
      root Spine_dum LeftUpLeg_dum RightUpLeg_dum
      Spine_dum Spine
      LeftUpLeg_dum LeftUpLeg
      RightUpLeg_dum RightUpLeg
      Spine Spine_dum1 Spine_dum2 Spine_dum3
      Spine_dum1 Head
      Spine_dum2 LeftShoulder
      Spine_dum3 RightShoulder
      LeftShoulder LeftArm
      LeftArm LeftForeArm
      LeftForeArm LeftHand
      LeftHand LeftHand_dum1 LeftHand_dum2
      LeftHand_dum1 LeftHandThumb1
      RightShoulder RightArm
      RightArm RightForeArm
      RightForeArm RightHand
      RightHand RightHand_dum1 RightHand_dum2
      RightHand_dum1 RightHandThumb1
      LeftUpLeg LeftLeg
      LeftLeg LeftFoot
      LeftFoot LeftToeBase
      RightUpLeg RightLeg
      RightLeg RightFoot
      RightFoot RightToeBase
   end

# File created by Blade
# Date/Time:  Tue Jan 27 19:18:41 2015
# Frame Rate: 120.000 fps
#------------------------------------------------------
:FULLY-SPECIFIED
:DEGREES
1558
root 4.581304 32.332579 1.278033 -4.117656 6.692137 1.318851
Spine -1.907405 15.399360 3.334355
Head 5.652452 -18.089252 -13.461068
LeftShoulder -3.813474 -9.167689 22.378513
LeftArm -4.976722 40.706665 -101.936857
LeftForeArm 2.951856 -0.000000 14.544238
LeftHand 10.828896 0.000000 -6.180429
LeftHandThumb1 -26.253704 0.000000 33.147579
RightShoulder -5.219425 14.532071 -40.937083
RightArm 95.887744 54.283769 148.784172
RightForeArm 23.163841 -0.000000 107.049082
RightHand 30.863000 0.000000 -33.885837
RightHandThumb1 -24.326973 -0.000000 -32.862282
LeftUpLeg 10.468724 -4.832675 -2.808549
LeftLeg 2.479633 -0.000000 -0.000000
LeftFoot -16.944881 12.165884 -22.144012
LeftToeBase 16.746979 -0.000000 -0.000000
RightUpLeg 11.952303 -12.970975 -1.451572
RightLeg -0.654130 -0.000000 0.000000
RightFoot -13.437427 -14.523951 15.415817
RightToeBase 10.085136 -0.000000 -0.000000
1559
root 4.582085 32.332554 1.280446 -4.141515 6.652011 1.317206
Spine -1.894006 15.403797 3.342083
Head 5.610827 -18.110688 -13.371330
LeftShoulder -3.792576 -9.176501 22.389139
LeftArm -5.022738 40.722373 -101.944735
LeftForeArm 2.919065 -0.000000 14.613901
LeftHand 10.843476 -0.000000 -6.230132
LeftHandThumb1 -26.253704 0.000000 33.147579
RightShoulder -5.194812 14.558118 -40.956028
RightArm 95.393298 54.473986 148.114360
RightForeArm 22.970262 -0.000000 107.081858
RightHand 30.858336 -0.000000 -34.054104
RightHandThumb1 -24.326973 -0.000000 -32.862282
LeftUpLeg 10.489687 -4.806564 -2.809072
LeftLeg 2.497874 -0.000000 -0.000000
LeftFoot -16.977586 12.245383 -21.968188
LeftToeBase 16.986838 -0.000000 -0.000000
RightUpLeg 11.971432 -12.904486 -1.445319
RightLeg -0.653897 -0.000000 0.000000
RightFoot -13.430499 -14.573242 15.377670
RightToeBase 10.101148 -0.000000 -0.000000
1560
root 4.582136 32.331997 1.282208 -4.164240 6.616410 1.306078
Spine -1.878589 15.390089 3.357511
Head 5.555723 -18.140808 -13.293111
LeftShoulder -3.785013 -9.142628 22.397240
LeftArm -5.020060 40.768430 -101.926040
LeftForeArm 2.869210 -0.000000 14.683525
LeftHand 10.844061 -0.000000 -6.211334
LeftHandThumb1 -26.253704 0.000000 33.147579
RightShoulder -5.155121 14.546828 -40.958385
RightArm 94.953292 54.601735 147.485998
RightForeArm 22.859653 -0.000000 107.116525
RightHand 30.868852 -0.000000 -33.983997
RightHandThumb1 -24.326973 -0.000000 -32.862282
LeftUpLeg 10.507282 -4.786215 -2.801569
LeftLeg 2.529608 -0.000000 -0.000000
LeftFoot -16.997281 12.180438 -22.147200
LeftToeBase 16.719396 -0.000000 -0.000000
RightUpLeg 11.988374 -12.855828 -1.433514
RightLeg -0.649601 -0.000000 0.000000
RightFoot -13.434491 -14.583569 15.386287
RightToeBase 10.099974 -0.000000 -0.000000
1561
root 4.581816 32.331307 1.283915 -4.190239 6.583798 1.305628
Spine -1.850099 15.375165 3.348832
Head 5.461903 -18.183538 -13.180218
LeftShoulder -3.787007 -9.139310 22.414950
LeftArm -5.053658 40.814665 -101.922395
LeftForeArm 2.807156 -0.000000 14.772609
LeftHand 10.858341 -0.000000 -6.272187
LeftHandThumb1 -26.253704 0.000000 33.147579
RightShoulder -5.128537 14.546404 -40.955088
RightArm 94.530818 54.696275 146.887685
RightForeArm 22.591674 -0.000000 107.141802
RightHand 30.851893 -0.000000 -34.004312
RightHandThumb1 -24.326973 -0.000000 -32.862282
LeftUpLeg 10.532945 -4.745468 -2.802433
LeftLeg 2.541201 -0.000000 -0.000000
LeftFoot -17.026434 12.257785 -21.946746
LeftToeBase 16.898387 -0.000000 -0.000000
RightUpLeg 12.007154 -12.794136 -1.428341
RightLeg -0.642390 -0.000000 0.000000
RightFoot -13.448392 -14.603213 15.403958
RightToeBase 10.066833 -0.000000 -0.000000
